<?xml version="1.0" encoding="iso-8859-1"?>
<!-- Generator: Adobe Illustrator 19.2.1, SVG Export Plug-In . SVG Version: 6.00 Build 0)  -->
<svg version="1.1" xmlns="http://www.w3.org/2000/svg" xmlns:xlink="http://www.w3.org/1999/xlink" x="0px" y="0px"
	 viewBox="0 0 173.329 97.789">
		<path id="XMLID_335_" style="fill:#FFFFFF;stroke:#231F20;stroke-miterlimit:10;" d="M59.121,34.254
			C48.909,36.027,26,40.004,14.959,41.921C8.749,42.999,3.315,31.763,0.578,15.999c32.224-5.595,44.553-7.735,63.345-10.998
			C66.317,18.795,65.331,33.176,59.121,34.254z"/>

			<rect id="XMLID_334_" x="34.029" y="48.989" transform="matrix(0.9853 -0.1711 0.1711 0.9853 -8.7456 7.4794)" style="fill:#FFFFFF;stroke:#231F20;stroke-miterlimit:10;" width="10" height="11"/>

			<ellipse id="XMLID_333_" transform="matrix(0.9853 -0.1711 0.1711 0.9853 -3.9792 6.3726)" style="fill:#FFFFFF;stroke:#231F20;stroke-miterlimit:10;" cx="34.99" cy="26.277" rx="25.773" ry="25.773"/>

			<rect id="XMLID_332_" x="29.554" y="59.685" transform="matrix(0.9853 -0.1711 0.1711 0.9853 -10.1959 8.0395)" style="fill:#FFFFFF;stroke:#231F20;stroke-miterlimit:10;" width="24" height="7"/>

			<rect id="XMLID_331_" x="19.863" y="66.486" transform="matrix(0.9853 -0.1711 0.1711 0.9853 -12.4372 8.6305)" style="fill:#FFFFFF;stroke:#231F20;stroke-miterlimit:10;" width="48" height="20"/>

			<rect id="XMLID_330_" x="16.916" y="84.309" transform="matrix(0.9853 -0.1711 0.1711 0.9853 -14.4294 9.1559)" style="fill:#FFFFFF;stroke:#231F20;stroke-miterlimit:10;" width="58" height="8"/>
		<path id="XMLID_124_" style="fill:none;stroke:#231F20;stroke-miterlimit:10;" d="M101.719,38.415
			c1.107-3.964,6.416-5.249,10.403-5.306c4.213-0.06,5.332,1.133,9.298-0.289c6.494-3.478,3.518-12.784,12.665-14.509"/>

			<rect id="XMLID_119_" x="89.334" y="6.511" transform="matrix(0.2152 -0.9766 0.9766 0.2152 30.0082 159.3751)" style="fill:#FFFFFF;stroke:#231F20;stroke-miterlimit:10;" width="49.655" height="109.013"/>

			<rect id="XMLID_114_" x="125.269" y="56.819" transform="matrix(0.2152 -0.9766 0.9766 0.2152 41.1843 182.0079)" style="fill:#FFFFFF;stroke:#231F20;stroke-miterlimit:10;" width="17.122" height="17.122"/>

			<rect id="XMLID_109_" x="146.128" y="61.357" transform="matrix(0.2152 -0.9766 0.9766 0.2152 53.1232 205.9386)" style="fill:#FFFFFF;stroke:#231F20;stroke-miterlimit:10;" width="17.122" height="17.122"/>

			<ellipse id="XMLID_104_" transform="matrix(0.2152 -0.9766 0.9766 0.2152 41.1843 182.0079)" style="fill:#FFFFFF;stroke:#231F20;stroke-miterlimit:10;" cx="133.831" cy="65.381" rx="6.164" ry="6.164"/>

			<ellipse id="XMLID_99_" transform="matrix(0.2152 -0.9766 0.9766 0.2152 53.4009 205.801)" style="fill:#FFFFFF;stroke:#231F20;stroke-miterlimit:10;" cx="154.742" cy="69.677" rx="6.164" ry="6.164"/>
		<path id="XMLID_94_" style="fill:#FFFFFF;stroke:#231F20;stroke-miterlimit:10;" d="M122.022,55.819
			c-0.312,1.416-1.713,2.311-3.129,1.999L92.807,52.07c-1.416-0.312-2.311-1.713-1.999-3.129s1.713-2.311,3.129-1.999l26.085,5.748
			C121.439,53.002,122.334,54.403,122.022,55.819z"/>
		<path id="XMLID_129_" style="fill:#FFFFFF;stroke:#231F20;stroke-miterlimit:10;" d="M119.821,65.805l-0.295,1.338
			c-0.543,2.463-2.979,4.019-5.442,3.477L91.79,65.707c-2.463-0.543-4.019-2.979-3.477-5.442l0.295-1.338
			c0.543-2.463,2.979-4.019,5.442-3.477l22.295,4.912C118.807,60.907,120.364,63.343,119.821,65.805z"/>
		<polygon id="XMLID_139_" style="fill:none;stroke:#231F20;stroke-miterlimit:10;" points="86.19,50.566 84.397,58.704
			77.941,57.272 76.504,63.759 68.296,61.95 69.81,55.48 63.272,54.049 65.065,45.912 71.505,47.321 72.922,40.892 81.227,42.722
			79.69,49.134 		"/>
		<path id="XMLID_144_" style="fill:#FFFFFF;stroke:#231F20;stroke-miterlimit:10;" d="M100.89,62.336
			c-0.224,1.016-1.229,1.658-2.245,1.434l-5.128-1.13c-1.016-0.224-1.658-1.229-1.434-2.245c0.224-1.016,1.229-1.658,2.245-1.434
			l5.128,1.13C100.472,60.315,101.114,61.32,100.89,62.336z"/>
		<path id="XMLID_154_" style="fill:#FFFFFF;stroke:#231F20;stroke-miterlimit:10;" d="M116.497,65.774
			c-0.224,1.016-1.229,1.658-2.245,1.434l-5.128-1.13c-1.016-0.224-1.658-1.229-1.434-2.245c0.224-1.016,1.229-1.658,2.245-1.434
			l5.128,1.13C116.079,63.753,116.721,64.758,116.497,65.774z"/>
</svg>
