<svg id="Bowler_Hat" xmlns="http://www.w3.org/2000/svg" viewBox="0 0 343 157.3">
  <defs>
    <style>
      .cls-1 {
        fill: #fff;
      }

      .cls-2 {
        fill: #231f20;
      }
    </style>
  </defs>
  <title>BowlerHats</title>
  <g id="_Group_" data-name="&lt;Group&gt;">
    <ellipse class="cls-1" cx="106.5" cy="96.5" rx="106" ry="33.3"/>
    <path class="cls-2" d="M1124.6,130.3c-58.7,0-106.5-15.1-106.5-33.7s47.8-33.7,106.5-33.7,106.5,15.1,106.5,33.8S1183.3,130.3,1124.6,130.3Zm0-66.5c-58.2,0-105.5,14.7-105.5,32.8s47.3,32.8,105.5,32.8,105.5-14.7,105.5-32.7S1182.7,63.8,1124.6,63.8Z" transform="translate(-1018.1)"/>
  </g>
  <g id="_Group_2" data-name="&lt;Group&gt;">
    <polyline class="cls-1" points="53.9 96.2 53.9 10.2 158.9 10.2 158.9 96.2"/>
    <polygon class="cls-2" points="159.9 97.2 158.9 97.2 158.9 10.2 54.9 10.2 54.9 97.2 53.9 97.2 53.9 9.7 54.4 9.2 159.4 9.2 159.9 9.7 159.9 97.2"/>
  </g>
  <g id="_Group_3" data-name="&lt;Group&gt;">
    <path class="cls-1" d="M1177.5,81.1c0,6.7-24,12.1-52.9,12.1s-52.1-5.4-52.1-12.1" transform="translate(-1018.1)"/>
    <path class="cls-2" d="M1124.6,93.8c-29.5,0-52.6-5.6-52.6-12.6h1c0,6,20.7,11.6,51.6,11.6s52.4-5.6,52.4-11.6h1C1178,89.2,1150.8,93.8,1124.6,93.8Z" transform="translate(-1018.1)"/>
  </g>
  <g id="_Group_4" data-name="&lt;Group&gt;">
    <path class="cls-1" d="M1177.5,96.1c0,6.7-24,12.1-52.9,12.1s-52.1-5.3-52.1-12" transform="translate(-1018.1)"/>
    <path class="cls-2" d="M1124.6,108.7c-29.5,0-52.6-5.5-52.6-12.5h1c0,6.3,23.1,11.5,51.6,11.5,31.4,0,52.4-5.5,52.4-11.5h1C1178,104.2,1150.8,108.7,1124.6,108.7Z" transform="translate(-1018.1)"/>
  </g>
  <g id="_Group_5" data-name="&lt;Group&gt;">
    <path class="cls-1" d="M1124.6,0.5c29,0,52.9,3.9,52.9,8.8s-24,9.2-52.9,9.2-52.1-4.5-52.1-9.4S1095.6,0.5,1124.6.5Z" transform="translate(-1018.1)"/>
    <path class="cls-2" d="M1124.6,19c-25.3,0-52.6-3.8-52.6-9.9S1098.4,0,1124.6,0,1178,3.3,1178,9.3,1150.8,19,1124.6,19Zm0-18c-31.8,0-51.6,4.2-51.6,8.1s21.2,8.9,51.6,8.9,52.4-4.6,52.4-8.7S1155.9,1,1124.6,1Z" transform="translate(-1018.1)"/>
  </g>
  <g id="_Group_6" data-name="&lt;Group&gt;">
    <ellipse class="cls-1" cx="236.5" cy="96.5" rx="106" ry="33.3"/>
    <path class="cls-2" d="M1254.6,130.3c-58.7,0-106.5-15.1-106.5-33.7s47.8-33.7,106.5-33.7,106.5,15.1,106.5,33.8S1313.3,130.3,1254.6,130.3Zm0-66.5c-58.2,0-105.5,14.7-105.5,32.8s47.3,32.8,105.5,32.8,105.5-14.7,105.5-32.7S1312.7,63.8,1254.6,63.8Z" transform="translate(-1018.1)"/>
  </g>
  <g id="_Group_7" data-name="&lt;Group&gt;">
    <polyline class="cls-1" points="183.9 96.2 183.9 10.2 288.9 10.2 288.9 96.2"/>
    <polygon class="cls-2" points="289.9 97.2 288.9 97.2 288.9 10.2 184.9 10.2 184.9 97.2 183.9 97.2 183.9 9.7 184.4 9.2 289.4 9.2 289.9 9.7 289.9 97.2"/>
  </g>
  <g id="_Group_8" data-name="&lt;Group&gt;">
    <path class="cls-1" d="M1307.5,81.1c0,6.7-24,12.1-52.9,12.1s-52.1-5.4-52.1-12.1" transform="translate(-1018.1)"/>
    <path class="cls-2" d="M1254.6,93.8c-29.5,0-52.6-5.6-52.6-12.6h1c0,6,20.7,11.6,51.6,11.6s52.4-5.6,52.4-11.6h1C1308,89.2,1280.8,93.8,1254.6,93.8Z" transform="translate(-1018.1)"/>
  </g>
  <g id="_Group_9" data-name="&lt;Group&gt;">
    <path class="cls-1" d="M1307.5,96.1c0,6.7-24,12.1-52.9,12.1s-52.1-5.3-52.1-12" transform="translate(-1018.1)"/>
    <path class="cls-2" d="M1254.6,108.7c-29.5,0-52.6-5.5-52.6-12.5h1c0,6.3,23.1,11.5,51.6,11.5,31.4,0,52.4-5.5,52.4-11.5h1C1308,104.2,1280.8,108.7,1254.6,108.7Z" transform="translate(-1018.1)"/>
  </g>
  <g id="_Group_10" data-name="&lt;Group&gt;">
    <path class="cls-1" d="M1254.6,0.5c29,0,52.9,3.9,52.9,8.8s-24,9.2-52.9,9.2-52.1-4.5-52.1-9.4S1225.6,0.5,1254.6.5Z" transform="translate(-1018.1)"/>
    <path class="cls-2" d="M1254.6,19c-25.3,0-52.6-3.8-52.6-9.9S1228.4,0,1254.6,0,1308,3.3,1308,9.3,1280.8,19,1254.6,19Zm0-18c-31.8,0-51.6,4.2-51.6,8.1s21.2,8.9,51.6,8.9,52.4-4.6,52.4-8.7S1285.9,1,1254.6,1Z" transform="translate(-1018.1)"/>
  </g>
  <g id="_Group_11" data-name="&lt;Group&gt;">
    <ellipse class="cls-1" cx="171.5" cy="123.5" rx="106" ry="33.3"/>
    <path class="cls-2" d="M1189.6,157.3c-58.7,0-106.5-15.1-106.5-33.7s47.8-33.7,106.5-33.7,106.5,15.1,106.5,33.8S1248.3,157.3,1189.6,157.3Zm0-66.5c-58.2,0-105.5,14.7-105.5,32.8s47.3,32.8,105.5,32.8,105.5-14.7,105.5-32.7S1247.7,90.8,1189.6,90.8Z" transform="translate(-1018.1)"/>
  </g>
  <g id="_Group_12" data-name="&lt;Group&gt;">
    <polyline class="cls-1" points="118.9 123.2 118.9 37.2 223.9 37.2 223.9 123.2"/>
    <polygon class="cls-2" points="224.9 124.2 223.9 124.2 223.9 37.2 119.9 37.2 119.9 124.2 118.9 124.2 118.9 36.7 119.4 36.2 224.4 36.2 224.9 36.7 224.9 124.2"/>
  </g>
  <g id="_Group_13" data-name="&lt;Group&gt;">
    <path class="cls-1" d="M1242.5,108.1c0,6.7-24,12.1-52.9,12.1s-52.1-5.4-52.1-12.1" transform="translate(-1018.1)"/>
    <path class="cls-2" d="M1189.6,120.8c-29.5,0-52.6-5.6-52.6-12.6h1c0,6,20.7,11.6,51.6,11.6s52.4-5.6,52.4-11.6h1C1243,116.2,1215.8,120.8,1189.6,120.8Z" transform="translate(-1018.1)"/>
  </g>
  <g id="_Group_14" data-name="&lt;Group&gt;">
    <path class="cls-1" d="M1242.5,123.1c0,6.7-24,12.1-52.9,12.1s-52.1-5.3-52.1-12" transform="translate(-1018.1)"/>
    <path class="cls-2" d="M1189.6,135.7c-29.5,0-52.6-5.5-52.6-12.5h1c0,6.3,23.1,11.5,51.6,11.5,31.4,0,52.4-5.5,52.4-11.5h1C1243,131.2,1215.8,135.7,1189.6,135.7Z" transform="translate(-1018.1)"/>
  </g>
  <g id="_Group_15" data-name="&lt;Group&gt;">
    <path class="cls-1" d="M1189.6,27.5c29,0,52.9,3.9,52.9,8.8s-24,9.2-52.9,9.2-52.1-4.5-52.1-9.4S1160.6,27.5,1189.6,27.5Z" transform="translate(-1018.1)"/>
    <path class="cls-2" d="M1189.6,46c-25.3,0-52.6-3.8-52.6-9.9s26.4-9.1,52.6-9.1,53.4,3.3,53.4,9.3S1215.8,46,1189.6,46Zm0-18c-31.8,0-51.6,4.2-51.6,8.1s21.2,8.9,51.6,8.9,52.4-4.6,52.4-8.7S1220.9,28,1189.6,28Z" transform="translate(-1018.1)"/>
  </g>
</svg>
