<svg version="1.1" xmlns="http://www.w3.org/2000/svg" xmlns:xlink="http://www.w3.org/1999/xlink" x="0px" y="0px" viewBox="0 0 343 157.25" style="enable-background:new 0 0 343 157.25;" xml:space="preserve">
		<ellipse id="XMLID_244_" cx="106.5" cy="96.5" rx="106" ry="33.25"/>
		<polyline id="XMLID_245_" points="
		54.499,96.25 54.499,9.75 159.499,9.75 159.499,96.25 	"/>
		<path id="XMLID_159_" d="M159.448,81.07
		c0,6.679-23.953,12.093-52.948,12.093S54.448,87.749,54.448,81.07"/>
		<path id="XMLID_169_" d="M159.448,96.07
		c0,6.679-23.953,12.093-52.948,12.093s-52.052-5.325-52.052-12.003"/>
		<path id="XMLID_249_" d="M106.5,0.5
		c28.995,0,52.948,3.855,52.948,8.826S135.495,18.5,106.5,18.5s-52.052-4.464-52.052-9.435S77.505,0.5,106.5,0.5z"/>
		<ellipse id="XMLID_282_" cx="236.5" cy="96.5" rx="106" ry="33.25"/>
		<polyline id="XMLID_281_" points="
		184.499,96.25 184.499,9.75 289.499,9.75 289.499,96.25 	"/>
		<path id="XMLID_280_" d="M289.448,81.07
		c0,6.679-23.953,12.093-52.948,12.093s-52.052-5.414-52.052-12.093"/>
		<path id="XMLID_278_" d="M289.448,96.07
		c0,6.679-23.953,12.093-52.948,12.093s-52.052-5.325-52.052-12.003"/>
		<path id="XMLID_277_" d="M236.5,0.5
		c28.995,0,52.948,3.855,52.948,8.826S265.495,18.5,236.5,18.5s-52.052-4.464-52.052-9.435S207.505,0.5,236.5,0.5z"/>
		<ellipse id="XMLID_293_" cx="171.5" cy="123.5" rx="106" ry="33.25"/>
		<polyline id="XMLID_292_" points="
		119.499,123.25 119.499,36.75 224.499,36.75 224.499,123.25 	"/>
		<path id="XMLID_290_" d="M224.448,108.07
		c0,6.679-23.953,12.093-52.948,12.093s-52.052-5.414-52.052-12.093"/>
		<path id="XMLID_289_" d="M224.448,123.07
		c0,6.679-23.953,12.093-52.948,12.093s-52.052-5.325-52.052-12.003"/>
		<path id="XMLID_284_" d="M171.5,27.5
		c28.995,0,52.948,3.855,52.948,8.826S200.495,45.5,171.5,45.5s-52.052-4.464-52.052-9.435S142.505,27.5,171.5,27.5z"/>
</svg>
