<svg id="city-buildings-svg" xmlns="http://www.w3.org/2000/svg" viewBox="0 0 65 31">
  <title>City</title>
  <polyline class="city-path hw-on" points="6.5 18.5 6.5 5.5 22.5 5.5 22.5 12.5"/>
  <polyline class="city-path hw-on" points="0.5 30.5 0.5 18.5 10.5 18.5 10.5 30.5"/>
  <polyline class="city-path hw-on" points="61.8 22.5 64.5 22.5 64.5 30.5"/>
  <polyline class="city-path hw-on" points="50.5 22.5 61.8 22.5 61.8 14.5 50.5 14.5"/>
  <path class="city-path hw-on" d="M1483.5,192.6" transform="translate(-1463 -162.1)"/>
  <polyline class="city-path hw-on" points="20.5 20.5 15.5 20.5 15.5 30.5"/>
  <polyline class="city-path hw-on" points="39.5 12.5 39.5 5.5 50.5 5.5 50.5 30.5"/>
  <polyline class="city-path hw-on" points="33.5 12.5 33.5 0.5 37.5 0.5 37.5 12.5"/>
  <polyline class="city-path hw-on" points="42.5 30.5 42.5 12.5 20.5 12.5 20.5 30.5"/>
</svg>
