<svg xmlns="http://www.w3.org/2000/svg" viewBox="0 0 1432.954 885.131">
    <path d="M915.535 5.393S783.111-4.128 677.774 90.675c-48.523 43.67-84.914 123.365-84.914 123.365s-76.826-37.067-174.682 4.852c-40.604 17.394-131.183 84.299-141.929 163.764-92.184 4.937-184.822 58.461-212.286 93.405C25.716 530.795 2.908 584.912 5.736 669.477 15.26 866.94 233.792 879.874 233.792 879.874h958.322s233.918 4.539 235.334-224.954c.253-40.907-8.166-90.732-29.782-134.778-27.209-55.445-75.331-103.557-153.391-117.639-7.921-122.726-39.461-290.348-151.633-353.221-33.67-29.959-126.307-44.588-177.107-43.889z" fill="none" stroke="#231f20" stroke-width="11" stroke-miterlimit="10"/>
</svg>
