<svg xmlns="http://www.w3.org/2000/svg" viewBox="0 0 129.68 79.845">
    <path d="M82.854.524S70.87-.338 61.338 8.242c-4.391 3.952-7.684 11.164-7.684 11.164s-6.952-3.354-15.808.439c-3.674 1.574-11.871 7.629-12.844 14.82-8.342.447-16.725 5.29-19.211 8.453C2.33 48.071.266 52.81.522 60.463 1.384 78.332 21.16 79.345 21.16 79.345h86.724s21.168.569 21.297-20.199c.023-3.702-.739-8.132-2.695-12.118-2.462-5.017-6.817-9.332-13.881-10.606-.717-11.106-3.571-26.255-13.722-31.945C95.834 1.765 87.451.461 82.854.524z" fill="none" stroke="#231f20" stroke-miterlimit="10"/>
</svg>
