<svg xmlns="http://www.w3.org/2000/svg" viewBox="0 0 45.631 45.631">
    <g stroke-miterlimit="10">
        <path fill="#fff" stroke="#231f20" d="M.5.5h44.631v44.631H.5z"/>
        <g stroke="#000">
            <path d="M19.991 31.444c-.934.487-3.004 1.137-5.644 1.137-5.928 0-9.785-4.02-9.785-10.029 0-6.05 4.142-10.435 10.557-10.435 2.111 0 3.979.528 4.954 1.015l-.813 2.761c-.853-.487-2.192-.934-4.142-.934-4.507 0-6.943 3.33-6.943 7.43 0 4.548 2.924 7.35 6.821 7.35 2.03 0 3.37-.528 4.386-.975l.609 2.68zM26.288 12.522l3.857 11.044c.649 1.787 1.178 3.411 1.584 5.035h.121c.447-1.624 1.016-3.248 1.665-5.035l3.816-11.044h3.736l-7.715 19.652h-3.411L22.47 12.522h3.818z"/>
        </g>
    </g>
</svg>
