<svg xmlns="http://www.w3.org/2000/svg" viewBox="0 0 118.336 79.768">
    <g stroke="#231f20" stroke-miterlimit="10">
        <path d="M46.726 20.595c1.107-3.964 6.416-5.249 10.403-5.306 4.213-.06 5.332 1.133 9.298-.289C72.921 11.522 69.945 2.216 79.092.491" fill="none"/>
        <path fill="#fff" d="M.596 55.714L11.282 7.221l106.462 23.46-10.686 48.493z" stroke-width="1.00003"/>
        <path fill="#fff" d="M68.637 54.078l3.684-16.721 16.722 3.684-3.685 16.722zM89.496 58.615l3.685-16.72 16.721 3.684-3.685 16.721z" stroke-width="1.00003"/>
        <ellipse transform="rotate(-77.573 78.836 47.559)" cx="78.837" cy="47.561" rx="6.164" ry="6.164" fill="#fff"/>
        <ellipse transform="rotate(-77.573 99.747 51.855)" cx="99.749" cy="51.856" rx="6.164" ry="6.164" fill="#fff"/>
        <path d="M67.028 37.999a2.626 2.626 0 0 1-3.129 1.999L37.814 34.25a2.626 2.626 0 0 1 1.13-5.128l26.085 5.748a2.626 2.626 0 0 1 1.999 3.129zM64.828 47.985l-.295 1.338a4.567 4.567 0 0 1-5.442 3.477l-22.295-4.912a4.567 4.567 0 0 1-3.477-5.442l.295-1.338a4.567 4.567 0 0 1 5.442-3.477l22.295 4.912a4.567 4.567 0 0 1 3.477 5.442z" fill="#fff"/>
        <path fill="none" d="M31.197 32.746l-1.793 8.138-6.457-1.433-1.437 6.488-8.207-1.809 1.513-6.47-6.537-1.431 1.793-8.138 6.44 1.41 1.416-6.429 8.305 1.83-1.537 6.412z"/>
        <path d="M45.897 44.515a1.884 1.884 0 0 1-2.245 1.434l-5.128-1.13a1.884 1.884 0 1 1 .811-3.679l5.128 1.13a1.885 1.885 0 0 1 1.434 2.245zM61.503 47.954a1.884 1.884 0 0 1-2.245 1.434l-5.128-1.13a1.884 1.884 0 1 1 .811-3.679l5.128 1.13a1.884 1.884 0 0 1 1.434 2.245z" fill="#fff"/>
    </g>
</svg>
