<svg xmlns="http://www.w3.org/2000/svg" viewBox="0 0 87.742 37.188">
    <g fill="#fff" stroke="#000" stroke-miterlimit="10">
        <path d="M64.866 33.598C60.646 14.896 85.922 5.206 85.922 5.206S66.555 1.517 58.946 21.115C51.799 5.668 34.093 1.188 34.093 1.188S49.03 11.251 51.107 21.346c5.267 25.6-28.129-19.367-28.359-19.367s11.759 22.134 3.228 32.97"/>
        <path d="M19.176 35.726S21.872 17.657.5 7.136c0-.692 19.367-3.689 26.976 15.909C34.623 7.597 43.615 4.139 43.615 4.139s-5.764 5.533-8.3 19.137C37.39 49.329 63.444 3.908 63.674 3.908c.231 0-11.759 22.134-3.228 32.97"/>
    </g>
</svg>
