<svg id="Home" xmlns="http://www.w3.org/2000/svg" viewBox="0 0 45.4 32.6">
  <title>Home</title>
  <rect class="cls-1" x="14" y="19" width="17.3" height="13.03"/>
  <rect class="cls-1" x="31.3" y="26.8" width="8.2" height="5.18"/>
  <rect class="cls-1" x="29.5" y="10.3" width="3.6" height="7.62"/>
  <polygon class="cls-1" points="34.5 19.9 11 19.9 22.7 5.2 34.5 19.9"/>
  <path id="_Path_" data-name="&lt;Path&gt;" class="cls-1" d="M34.8,0.5a1.6,1.6,0,0,0-1.1.4,2,2,0,0,0-.4.6,1,1,0,0,0-.8,0,1.2,1.2,0,0,0-.6.7,1.5,1.5,0,0,0-1,.4,1.7,1.7,0,0,0-.3,1,1.2,1.2,0,0,0,1,1.1h4.3a1.2,1.2,0,0,0,1.1-1.1A1.7,1.7,0,0,0,37,2.9a1,1,0,0,0-.7-0.6A2,2,0,0,0,35.6.7Z"/>
  <path id="_Path_2" data-name="&lt;Path&gt;" class="cls-1" d="M42.6,8.8a1.6,1.6,0,0,0-1.1.4,2,2,0,0,0-.4.6,1,1,0,0,0-.8,0,1.2,1.2,0,0,0-.6.7,1.5,1.5,0,0,0-1,.4,1.7,1.7,0,0,0-.3,1,1.2,1.2,0,0,0,1,1.1h4.3a1.2,1.2,0,0,0,1.1-1.1,1.6,1.6,0,0,0-.1-0.7,1,1,0,0,0-.7-0.6A2,2,0,0,0,43.4,9Z"/>
  <rect class="cls-1" x="26.4" y="22" width="3.1" height="3.1"/>
  <rect class="cls-1" x="15.9" y="22" width="3.1" height="3.1"/>
  <path id="_Path_3" data-name="&lt;Path&gt;" class="cls-1" d="M8.5,5.8a1.5,1.5,0,0,0-1,.4,2,2,0,0,0-.4.5,1,1,0,0,0-.8,0,1.1,1.1,0,0,0-.6.7,1.5,1.5,0,0,0-.9.4,1.6,1.6,0,0,0-.2,1,1.2,1.2,0,0,0,1,1H9.7a1.1,1.1,0,0,0,1-1.1,1.6,1.6,0,0,0-.1-0.6,0.9,0.9,0,0,0-.7-0.5A1.9,1.9,0,0,0,9.2,6Z"/>
  <path id="_Path_4" data-name="&lt;Path&gt;" class="cls-1" d="M5.6,18.8a2,2,0,0,0-1.3.5,2.5,2.5,0,0,0-.5.7,1.3,1.3,0,0,0-1,0A1.4,1.4,0,0,0,2,21a1.9,1.9,0,0,0-1.2.5,2.1,2.1,0,0,0-.3,1.2A1.5,1.5,0,0,0,1.8,24H7.2a1.4,1.4,0,0,0,1.3-1.4,2,2,0,0,0-.2-0.8,1.2,1.2,0,0,0-.9-0.7,2.5,2.5,0,0,0-.9-2A1.9,1.9,0,0,0,5.6,18.8Z"/>
  <path class="cls-1" d="M31.3,26.9"/>
  <path class="cls-1" d="M31.3,32.1"/>
  <rect class="cls-2" x="20.8" y="26.1" width="3.7" height="5.93"/>
</svg>
