<svg xmlns="http://www.w3.org/2000/svg" viewBox="0 0 614.833 350">
    <g fill="none" stroke="#231f20" stroke-width="2" stroke-miterlimit="10">
        <path d="M572.417 349.243h-530c-9.389 0-49.389-32-40-32h610c9.389 0-30.611 32-40 32z"/>
        <path d="M380.217 331.243H234.616c-2.579 0-13.568-14-10.989-14h167.578c2.58 0-8.409 14-10.988 14zM522 270.243c0 11.046-8.954 20-20 20H112c-11.046 0-20-8.954-20-20v-221c0-11.046 8.954-20 20-20h390c11.046 0 20 8.954 20 20v221z"/>
        <path d="M546.273 296.757c0 11.046-8.954 20-20 20h-438c-11.046 0-20-8.954-20-20v-276c0-11.046 8.954-20 20-20h438c11.046 0 20 8.954 20 20v276z"/>
    </g>
</svg>
