<svg xmlns="http://www.w3.org/2000/svg" viewBox="0 0 45.631 45.631">
    <g stroke-miterlimit="10">
        <path fill="#fff" stroke="#231f20" d="M.5.5h44.631v44.631H.5z"/>
        <g stroke="#000">
            <path d="M11.7 7.86c.051 1.52-1.063 2.735-2.836 2.735-1.57 0-2.685-1.215-2.685-2.735 0-1.57 1.165-2.785 2.786-2.785C10.636 5.074 11.7 6.29 11.7 7.86zM6.737 39.259V14.747h4.456v24.512H6.737zM18.586 21.382c0-2.533-.051-4.609-.203-6.635h3.95l.254 4.052h.101c1.216-2.33 4.052-4.609 8.104-4.609 3.393 0 8.66 2.026 8.66 10.433v14.636h-4.457v-14.13c0-3.95-1.469-7.242-5.672-7.242-2.938 0-5.217 2.077-5.976 4.558-.203.557-.305 1.316-.305 2.076v14.737h-4.456V21.382z"/>
        </g>
    </g>
</svg>
