<svg id="Thanks" xmlns="http://www.w3.org/2000/svg" viewBox="0 0 59.4 26.3">
  <path d="M22.7,2.1l-5.2.3a1.2,1.2,0,0,0-1.1.4L16.2,3.9Q16,5.1,15.9,6.3L15.7,8V8.8l-0.3.3H15a15.8,15.8,0,0,0,.2-1.6q0.1-1.5.3-2.4l0.4-2.3H11.4l-0.3-.2V2.6l0.3-.2L13,2.2,15.3,2l3.2-.2h3.3l1,0.2V2.1Z"/>
  <path d="M25,10H24.8a0.9,0.9,0,0,1-.6-0.8V8.8a0.6,0.6,0,0,0-.7-0.7H23.4l-1.9.3-0.7.2-0.8-.3,0.4-4.2A14.3,14.3,0,0,1,21.1,0h0.4a19.8,19.8,0,0,0-.4,2q-0.2,1.4-.3,2L20.6,6.5q-0.1,1.1-.1,1.2h0V8h0.6l1.5-.2h1.4a0.9,0.9,0,0,1,.6.8,6.8,6.8,0,0,1,0,1,0.5,0.5,0,0,0,.2.4V10Z"/>
  <path d="M30,9.1H29.8l-0.5-.5-0.6-.5-1.1.4-1.4.4-0.5-.2a0.6,0.6,0,0,1-.3-0.4,2,2,0,0,1,1.2-1.3,3.7,3.7,0,0,1,1.7-.7,0.5,0.5,0,0,1,.4.3V7H28.1l-0.9.4L26.3,8a0.9,0.9,0,0,0-.3.4l0.4,0.2,1.2-.4,1.3-.4,0.5,0.2,0.2,0.4L30,8.9V9.1Z"/>
  <path d="M34.8,6.5V7.7L34.5,9.6H34.3A0.5,0.5,0,0,1,34,9.2a2.7,2.7,0,0,1-.1-0.6V7c0-.2-0.1-0.3-0.2-0.3l-0.9.3-0.8.5L31.2,8.7l-0.4.4H30.3V8.9a2.6,2.6,0,0,1,.9-1l1.5-1.1A3.6,3.6,0,0,1,34.4,6l0.3,0.2A0.5,0.5,0,0,1,34.8,6.5Z"/>
  <path d="M40.1,9.1h0a0.5,0.5,0,0,1-.2.3l-0.4.2h0l-0.5-.3-0.5-.4L38,8.4l-1.1.4-0.7.3H36a0.4,0.4,0,0,1-.4-0.4h0q0-.2.1-1.2l0.2-1.4q0.2-1.3.3-2.7V1.1q0-.4.1-0.7l0.2-.3a0.4,0.4,0,0,1,.3.4h0q0,0.2,0,1.3T36.5,5.5V5.9q0,0.3,0,.6V7.8h0V8.3h0.2l0.8-.3,1.8-.7,0.9-.4h0.2a0.6,0.6,0,0,1,.2.5l-0.8.4-0.7.5A1.4,1.4,0,0,0,40.1,9.1Z"/>
  <path d="M44.3,8a0.6,0.6,0,0,1-.3.6l-1,.3-1,.2H41.9l-0.4.3-0.2-.2q0-.5,1.6-0.9h0.4l0.2-.2-0.5-.4-1.2-.4A1,1,0,0,1,41,6.4q0-.5,1.1-0.5h1l1,0.2h-2l1.3,0.6A1.2,1.2,0,0,1,44.3,8Z"/>
  <path d="M8.7,14.4h0v0.3a2.8,2.8,0,0,0-2.5-1.2L5,13.7a2.1,2.1,0,0,0-.9.7,5.6,5.6,0,0,0-.7,1.4,4.7,4.7,0,0,0-.4,1.5,6.3,6.3,0,0,0,.1.6v0.6l0.3,0.2H5.2a3.5,3.5,0,0,0-1.7.4,6.6,6.6,0,0,0,.6,1.4V21H4a2.4,2.4,0,0,1-.7-0.9,2.6,2.6,0,0,0-.7-0.9H1.8l-0.6.2-0.6.2A0.9,0.9,0,0,1,0,19.5H0a0.3,0.3,0,0,1,.2-0.3,8,8,0,0,1,2.3-.4H2.6a9.6,9.6,0,0,1-.1-1.1,5.6,5.6,0,0,1,.8-3.2,3.1,3.1,0,0,1,2.8-1.4,3.8,3.8,0,0,1,1.6.4A1.3,1.3,0,0,1,8.7,14.4Z"/>
  <path d="M13.1,19.4a1.7,1.7,0,0,1-.2.9,2.6,2.6,0,0,1-1.4.7l-1.7.3a3,3,0,0,1-1.3-.3,1.1,1.1,0,0,1-.8-1A0.7,0.7,0,0,1,8,19.4l0.8-.7A2.5,2.5,0,0,1,10,18l1.5-.2,0.6,0.2,0.5,0.3,0.3,0.5A1.7,1.7,0,0,1,13.1,19.4Zm-0.5,0a0.9,0.9,0,0,0-.4-0.7,1.3,1.3,0,0,0-.8-0.3l-1.1.2-0.7.3A2.6,2.6,0,0,0,8.3,20a0.7,0.7,0,0,0,.6.5l0.9,0.2,1.4-.2a2.3,2.3,0,0,0,1.2-.6A0.8,0.8,0,0,0,12.6,19.3Z"/>
  <path d="M18,18.6H17.8L17,18.6H15.1a1.3,1.3,0,0,0-.8,1,2.8,2.8,0,0,0-.1.5h0v0.6H14V20.2a5,5,0,0,1,.4-1.4l0.4-.4a3.5,3.5,0,0,1,1.8-.3,2.1,2.1,0,0,1,1.6.4v0.2Z"/>
  <path d="M27.1,18.6H27l-0.8-.2H24.3a1.3,1.3,0,0,0-.8,1,2.8,2.8,0,0,0-.1.5h0v0.6H23.1V20.2a5,5,0,0,1,.4-1.4l0.4-.4a3.5,3.5,0,0,1,1.8-.3,2.1,2.1,0,0,1,1.6.4v0.2Z"/>
  <path d="M32.5,20.9l-0.5.2H30.3l-1.3-.2a1.5,1.5,0,0,1-1.1-.6,2.3,2.3,0,0,1-.1-0.8,1.3,1.3,0,0,1,.6-1.1,2.4,2.4,0,0,1,1.3-.3,1.8,1.8,0,0,1,1.1.3,0.9,0.9,0,0,1,.4.8,1.2,1.2,0,0,1-.9.6L29,20H28.9v0.2l0.6,0.2h2.8Zm-2-1.9a1.2,1.2,0,0,0-.9-0.3l-0.8.2a0.7,0.7,0,0,0-.5.6v0.2h0.3l0.9-.3Z"/>
  <path d="M37.5,21.1H37.3l-0.5-.5-0.6-.5-1.1.4-1.4.4-0.5-.2a0.6,0.6,0,0,1-.3-0.4A2,2,0,0,1,34,19.2a3.7,3.7,0,0,1,1.7-.7,0.5,0.5,0,0,1,.4.3V19H35.6l-0.9.4-0.9.6a0.9,0.9,0,0,0-.3.4l0.4,0.2,1.2-.4,1.3-.4,0.5,0.2,0.2,0.4,0.4,0.5v0.2Z"/>
  <path d="M43.7,18.3l-2,.7-1.6.5a3.8,3.8,0,0,0-1.4.7v0.2h1l1.3-.2,2.5-.6a0.5,0.5,0,0,1-.3.4l-1.5.5-1.6.4H39.4l-0.9-.2a0.7,0.7,0,0,1-.6-0.6,0.7,0.7,0,0,1,.3-0.6l0.6-.3,2-.7,0.7-.2,0.7-.3h0.6l0.5-.3q-0.1-1.7-.1-4.3a2.4,2.4,0,0,1,.2-1.5l0.2,0.2a0.9,0.9,0,0,1,.1.4h0s0,0.4,0,1.1v3.3A8,8,0,0,0,43.7,18.3Z"/>
  <path d="M45.4,20.1v0.9H44.9a1.7,1.7,0,0,1-.1-0.6q0-1.8.5-2a0.3,0.3,0,0,1,.2.2h0Q45.5,19.3,45.4,20.1Zm0.5-3.7h0a0.7,0.7,0,0,1-.4.5L45,16.5a0.4,0.4,0,0,1,.3-0.4Z"/>
  <path d="M50.8,18.5v1.2l-0.2,1.9H50.3a0.5,0.5,0,0,1-.3-0.5,2.7,2.7,0,0,1-.1-0.6V19c0-.2-0.1-0.3-0.2-0.3l-0.9.3-0.8.5-1.1,1.1-0.4.4H46.3V20.9a2.6,2.6,0,0,1,.9-1l1.5-1.1a3.6,3.6,0,0,1,1.6-.7l0.3,0.2A0.5,0.5,0,0,1,50.8,18.5Z"/>
  <path d="M55.7,22.2a4.6,4.6,0,0,1-.5,2,4,4,0,0,1-1.5,1.7,4.9,4.9,0,0,1-2.2.3H50.7l-0.8-.2-0.6-.4-0.3-.5a1.6,1.6,0,0,1-.1-0.6q0-.7,1.4-1.4l2.3-.8,2.5-.4h0.1V21l-0.2-.7a1,1,0,0,0-.3-0.6h0l-0.6.2-0.9.2H52.3a0.6,0.6,0,0,1-.4-0.5V18.9l0.2-.2,0.7-.3,0.7-.2h1.4v0.3l-0.2.2H54.5q-1.7,0-2.1.7a0.8,0.8,0,0,0,.6.3l0.9-.4,0.7-.4h0a0.7,0.7,0,0,1,.5.6A8,8,0,0,1,55.7,22.2Zm-0.6.1a0.5,0.5,0,0,0-.1-0.3H54.9l-0.4.3H53.7a14,14,0,0,0-3.6,1.3,1.1,1.1,0,0,0-.7,1q0,0.7,1.5,1.1h1l1.3-.2,0.3-.2,0.3-.2a3.4,3.4,0,0,0,.9-1.3A3.7,3.7,0,0,0,55.1,22.3Z"/>
  <path d="M57.9,20.5v0.7H57.2L57,20.7l0.5-.4Zm1.6-8.3-0.3,1.3-0.5,2.1-0.3.8L58,19.2H57.8a0.4,0.4,0,0,1-.3-0.3,1.3,1.3,0,0,1-.1-0.5,9,9,0,0,1,.4-1.4,3.1,3.1,0,0,0,0-.4V16l0.2-1.1,0.5-2.2V12.1l0.3-.2A0.4,0.4,0,0,1,59.4,12.3Z"/>
</svg>
