<svg xmlns="http://www.w3.org/2000/svg" viewBox="0 0 164.558 136.729">
    <path fill="#fff" stroke="#231f20" stroke-miterlimit="10" d="M125.01 5.173l6.081-3.272-61.806 65.61-10.463 1.149-2.671-9.555z"/>
    <ellipse transform="rotate(-25.653 64.229 61.897)" cx="64.226" cy="61.895" rx="2.468" ry="2.468" fill="#fff" stroke="#231f20" stroke-miterlimit="10"/>
    <path fill="#fff" stroke="#231f20" stroke-miterlimit="10" d="M25.525 60.845l29.436-.016 1.668 6.866-29.966-.48zM59.654 70.392l-15 29.683 4.216 2.779 19.028-33.313z"/>
    <ellipse transform="rotate(-25.653 14.322 80.052)" cx="14.321" cy="80.049" rx="2.468" ry="2.468" fill="#fff" stroke="#231f20" stroke-miterlimit="10"/>
    <path d="M28.364 117.295s1.692 6.824-3.5 15.514c.895 2.164.994 3.269 3.083 3.419 2.089.149 5.805-14.316 11.974-14.973" fill="#fff" stroke="#231f20" stroke-miterlimit="10"/>
    <ellipse transform="rotate(-25.653 17.001 63.8)" cx="17" cy="63.797" rx="16.496" ry="16.496" fill="#fff" stroke="#231f20" stroke-miterlimit="10"/>
    <ellipse transform="rotate(-25.653 39.195 104.817)" cx="39.194" cy="104.812" rx="16.496" ry="16.496" fill="#fff" stroke="#231f20" stroke-miterlimit="10"/>
    <ellipse transform="rotate(-25.653 39.196 105.043)" cx="39.194" cy="105.039" rx="13.294" ry="13.223" fill="#fff" stroke="#231f20" stroke-miterlimit="10"/>
    <path fill="#fff" stroke="#231f20" stroke-miterlimit="10" d="M141.977 24.568L140 27.966l-66.789 37.66 22.143-23.338z"/>
    <ellipse transform="rotate(-25.653 16.79 63.8)" cx="16.789" cy="63.797" rx="13.294" ry="13.223" fill="#fff" stroke="#231f20" stroke-miterlimit="10"/>
    <path fill="#fff" stroke="#231f20" stroke-miterlimit="10" d="M59.217 34.941l21.108-4.892 21.322 91.994-21.108 4.893z" stroke-width="1.00003"/>
    <path fill="none" stroke="#231f20" stroke-miterlimit="10" d="M100.974 119.17l-8.118 1.881M94.48 120.675l-4.952 1.147M100.174 115.718l-8.118 1.881M99.374 112.267l-8.118 1.881M98.575 108.815l-8.119 1.881M97.775 105.364l-8.118 1.881M96.975 101.912l-11.447 2.653M96.175 98.46l-8.118 1.882M95.375 95.009l-8.118 1.881M95.375 95.009l-8.118 1.881M94.575 91.557l-8.118 1.882M93.775 88.106l-8.118 1.881M92.976 84.654l-11.447 2.653M92.176 81.203l-8.118 1.881M91.376 77.751l-8.118 1.881M90.576 74.3l-8.118 1.881M89.776 70.848l-8.118 1.881M89.776 70.848l-8.118 1.881M88.976 67.396L77.53 70.049M88.176 63.945l-8.118 1.881M87.377 60.493l-8.119 1.882M86.577 57.042l-8.118 1.881M85.777 53.59l-8.118 1.882M84.977 50.139l-11.69 2.709M84.177 46.687l-8.118 1.881M84.177 46.687l-8.118 1.881M83.377 43.236l-8.118 1.881M82.577 39.784l-8.118 1.881M81.778 36.332l-8.119 1.882M80.978 32.881L69.287 35.59"/>
    <path fill="#fff" stroke="#231f20" stroke-miterlimit="10" d="M125.76 56.84l11.093-2.853 12.64 49.162-11.093 2.852z"/>
    <path fill="#fff" stroke="#231f20" stroke-miterlimit="10" d="M143.183 99.127l12.978 1.843 7.873 10.48-1.844 12.978-11.655-11.14-7.196 7.964 3.722 13.844-10.874-3.76-5.328-11.358L132.703 107zM124.405 28.57l12.978 1.844 7.873 10.48-1.843 12.978-10.481 7.873-12.977-1.843-7.874-10.48 1.844-12.978z"/>
</svg>
