<svg xmlns="http://www.w3.org/2000/svg" viewBox="0 0 112.169 166.441">
    <g stroke-miterlimit="10">
        <path d="M31.377 165.995s24.133-12.354 16.089-65.792" fill="none" stroke="#000"/>
        <path d="M56.085.5c11.891 0 14.43 13.202 10.743 12.294-3.687-.909 4.697-11.419 15.226-5.893s6.642 18.396 3.799 15.878c-2.842-2.518 9.465-7.928 16.22 1.858 6.755 9.786-2.668 19.375-4.015 15.825-1.347-3.55 12.066-2.621 13.499 9.183 1.433 11.804-11.367 15.916-10.909 12.147.458-3.77 11.902 3.286 7.685 14.404s-17.461 8.811-15.304 5.686c2.157-3.125 9.011 8.441.111 16.326s-19.556-.313-16.194-2.078c3.362-1.765 4.057 11.662-7.489 14.507-11.545 2.846-17.17-9.365-13.373-9.365s-1.828 12.211-13.373 9.365S31.86 94.365 35.222 96.13c3.362 1.765-7.293 9.963-16.194 2.078s-2.046-19.451.111-16.326-11.088 5.433-15.304-5.686c-4.217-11.118 7.228-18.174 7.685-14.404.458 3.77-12.342-.342-10.909-12.147 1.433-11.804 14.845-12.733 13.499-9.183-1.347 3.551-10.77-6.039-4.015-15.825s19.063-4.376 16.22-1.858c-2.842 2.518-6.73-10.352 3.799-15.878s18.913 4.984 15.226 5.893C41.655 13.702 44.194.5 56.085.5z" fill="#fff" stroke="#231f20"/>
        <path d="M81.974 165.996s-24.133-12.354-16.089-65.792" fill="none" stroke="#000"/>
    </g>
</svg>
