<svg xmlns="http://www.w3.org/2000/svg" viewBox="0 0 80.233 140.833">
    <g fill="none" stroke="#000" stroke-miterlimit="10">
        <path d="M63.796 140.393c-19.744-10.701-16.622-74.407-16.622-74.407S35.63 44.463 38.92 62.4c3.29 17.937-12.223 77.137-12.223 77.137"/>
        <path d="M49.832 1.128c11.414 2.963 11.869 12.951 9.041 11.003-2.829-1.948 6.665-5.084 13.504 4.523s.767 17.551-.147 14.24c-.915-3.31 8.374.39 7.437 12.145-.937 11.755-10.694 13.938-9.267 10.815 1.427-3.124 6.164 5.681-2.109 14.084-8.273 8.403-17.151 3.803-14.05 2.328 3.101-1.476 1.07 8.314-10.669 9.433s-15.583-8.111-12.259-7.248c3.324.863-4.525 7.057-14.236.369s-6.724-16.23-4.732-13.432-8.002 2.498-11.143-8.869c-3.14-11.366 5.282-16.755 5.009-13.331-.273 3.424-7.735-3.23-2.835-13.956 4.9-10.726 14.816-9.44 12.406-6.993-2.41 2.447-3.849-7.447 6.799-12.513S39.999 6.018 36.58 6.343c-3.419.326 1.838-8.178 13.252-5.215z"/>
    </g>
</svg>
