<svg xmlns="http://www.w3.org/2000/svg" viewBox="0 0 80.337 165.443">
    <g stroke="#000" stroke-miterlimit="10">
        <path d="M25.646 165.393s6.321-62.344 5.459-68.665 17.525 0 17.525 0-3.16 47.979 2.298 68.09" fill="none"/>
        <path d="M36.818 105.683c2.763.4.796 12.023-10.772 5.712s-7.699-16.897-5.445-14.559c2.254 2.337-3.482 10.986-11.311-2.814-7.828-13.8-.804-20.18.337-16.531S2.799 84.496.808 66.905c-1.99-17.592 6.307-18.057 6.029-14.075-.278 3.982-8.344 1.148-3.964-15.521C7.253 20.64 14.6 26.215 12.977 29.464c-1.622 3.248-7.625-5.018 1.953-16.297 9.578-11.28 14.005-1.159 11.473.485S21.542 3.813 33.75.945c12.209-2.868 12.531 9.086 9.768 8.686-2.763-.4-.796-12.023 10.772-5.712s7.699 16.897 5.445 14.559c-2.254-2.337 3.482-10.986 11.311 2.814 7.828 13.8.804 20.18-.337 16.531-1.141-3.648 6.828-7.005 8.819 10.586C81.519 66 73.222 66.465 73.5 62.483c.278-3.982 8.344-1.148 3.964 15.521-4.38 16.669-11.727 11.094-10.104 7.845 1.622-3.248 7.625 5.018-1.953 16.297-9.578 11.28-14.005 1.159-11.473-.485 2.532-1.644 4.862 9.838-7.347 12.707-12.21 2.869-12.532-9.085-9.769-8.685z" fill="#fff"/>
    </g>
</svg>
