<svg id="Blimp_Anim" xmlns="http://www.w3.org/2000/svg" viewBox="0 0 370.5 197.4">
  <defs>
    <style>
      .cls-1 {
        fill: #fff;
        stroke: #231f20;
        stroke-miterlimit: 10;
      }

      .cls-2 {
        font-size: 13.58px;
        font-family: Quicksand;
      }
    </style>
  </defs>
  <title>Blimp_Anim</title>
  <rect id="_Rectangle_" data-name="&lt;Rectangle&gt;" class="cls-1" x="135.2" y="161.9" width="72" height="35"/>
  <text class="cls-2" transform="translate(139.7 192.8)">Animation</text>
  <path id="_Path_" data-name="&lt;Path&gt;" class="cls-1" d="M342.3,14.5c9.1,0,0,22,5.1,40.2C350.7,66.8,369.8,88,369.8,88s-18.4,21.5-22,34c-5,17.2,3.3,39.5-5.5,39.5-15.2,0-27.5-32.9-27.5-73.5S327.2,14.5,342.3,14.5Z"/>
  <path id="_Path_2" data-name="&lt;Path&gt;" class="cls-1" d="M171.5,0.5c94.4,0,171,39.2,171,87.5s-76.6,87.5-171,87.5S18.5,147,.5,88C18.5,22.5,77.1.5,171.5,0.5Z"/>
</svg>
